<svg width="57" height="56" viewBox="0 0 57 56" fill="none" xmlns="http://www.w3.org/2000/svg">
<rect x="0.396973" y="0.00537109" width="55.9894" height="55.9894" rx="27.9947" fill="white"/>
<path d="M37.6483 19.5181C35.9559 18.7292 34.1235 18.1566 32.2148 17.8257C32.1981 17.8252 32.1814 17.8283 32.166 17.8349C32.1506 17.8415 32.1369 17.8514 32.1257 17.8639C31.8967 18.2838 31.6295 18.831 31.4513 19.2509C29.4268 18.9455 27.3679 18.9455 25.3434 19.2509C25.1652 18.8183 24.898 18.2838 24.6562 17.8639C24.6435 17.8385 24.6053 17.8257 24.5672 17.8257C22.6584 18.1566 20.8388 18.7292 19.1336 19.5181C19.1209 19.5181 19.1082 19.5309 19.0955 19.5436C15.6343 24.7226 14.6799 29.7617 15.1508 34.7498C15.1508 34.7753 15.1635 34.8007 15.1889 34.8134C17.4794 36.4931 19.6808 37.5111 21.8568 38.1855C21.8949 38.1983 21.9331 38.1855 21.9458 38.1601C22.4548 37.4602 22.9129 36.7222 23.3074 35.946C23.3329 35.8951 23.3074 35.8442 23.2565 35.8314C22.5312 35.5515 21.844 35.2206 21.1696 34.8389C21.1187 34.8134 21.1187 34.7371 21.1569 34.6989C21.2969 34.5971 21.4368 34.4826 21.5768 34.3808C21.6023 34.3553 21.6404 34.3553 21.6659 34.3681C26.0432 36.3659 30.7642 36.3659 35.0906 34.3681C35.1161 34.3553 35.1543 34.3553 35.1797 34.3808C35.3197 34.4953 35.4597 34.5971 35.5996 34.7116C35.6505 34.7498 35.6505 34.8262 35.5869 34.8516C34.9252 35.2461 34.2253 35.5642 33.5 35.8442C33.4491 35.8569 33.4364 35.9205 33.4491 35.9587C33.8563 36.7349 34.3144 37.4729 34.8107 38.1728C34.8489 38.1855 34.887 38.1983 34.9252 38.1855C37.1139 37.5111 39.3153 36.4931 41.6058 34.8134C41.6312 34.8007 41.6439 34.7753 41.6439 34.7498C42.2038 28.9854 40.715 23.9846 37.6992 19.5436C37.6865 19.5309 37.6738 19.5181 37.6483 19.5181ZM23.9691 31.7086C22.6584 31.7086 21.5641 30.4997 21.5641 29.0109C21.5641 27.5221 22.633 26.3132 23.9691 26.3132C25.3179 26.3132 26.3868 27.5348 26.3741 29.0109C26.3741 30.4997 25.3052 31.7086 23.9691 31.7086ZM32.8383 31.7086C31.5277 31.7086 30.4333 30.4997 30.4333 29.0109C30.4333 27.5221 31.5022 26.3132 32.8383 26.3132C34.1872 26.3132 35.2561 27.5348 35.2433 29.0109C35.2433 30.4997 34.1872 31.7086 32.8383 31.7086Z" fill="black"/>
</svg>
